<?xml version="1.0" standalone="no"?><!DOCTYPE svg PUBLIC "-//W3C//DTD SVG 1.1//EN" "http://www.w3.org/Graphics/SVG/1.1/DTD/svg11.dtd"><svg t="1553517485383" class="icon" style="" viewBox="0 0 1049 1024" version="1.1" xmlns="http://www.w3.org/2000/svg" p-id="18252" xmlns:xlink="http://www.w3.org/1999/xlink" width="49.171875" height="48"><defs><style type="text/css">html, * { user-select: text !important; }
</style></defs><path d="M816.64 744.96H232.96c-128 0-232.96-104.96-232.96-232.96s104.96-232.96 232.96-232.96h583.68c128 0 232.96 104.96 232.96 232.96 2.56 128-102.4 232.96-232.96 232.96z m-583.68-409.6c-97.28 0-176.64 79.36-176.64 176.64s79.36 176.64 176.64 176.64h583.68c97.28 0 176.64-79.36 176.64-176.64s-79.36-176.64-176.64-176.64H232.96z" fill="#FFC10F" p-id="18253"></path><path d="M199.68 465.92l-15.36-10.24c12.8-15.36 25.6-30.72 30.72-48.64l17.92 2.56c-2.56 5.12-5.12 10.24-5.12 15.36h64v15.36H250.88c5.12 7.68 10.24 12.8 12.8 20.48l-15.36 5.12c-5.12-7.68-10.24-17.92-15.36-25.6h-12.8c-5.12 7.68-12.8 17.92-20.48 25.6z m189.44 48.64h-15.36V486.4H207.36v28.16H192v-43.52h92.16l-7.68-15.36 15.36-2.56h-2.56c10.24-12.8 20.48-28.16 25.6-46.08l15.36 2.56c-2.56 5.12-2.56 10.24-5.12 15.36h66.56v15.36h-40.96c5.12 7.68 7.68 12.8 12.8 17.92l-15.36 5.12-15.36-23.04H320l-15.36 23.04-10.24-7.68c2.56 5.12 5.12 10.24 7.68 17.92h89.6v40.96z m-30.72 33.28H240.64v15.36h128v61.44h-15.36V614.4H240.64v10.24h-15.36v-122.88h133.12v46.08z m-17.92-15.36v-17.92H240.64v17.92h99.84z m10.24 66.56v-23.04H240.64v23.04h110.08z m97.28-104.96v-56.32h-28.16v-15.36h74.24v15.36h-28.16v56.32h25.6v17.92h-25.6v53.76c7.68-2.56 17.92-5.12 25.6-10.24v15.36c-20.48 7.68-43.52 15.36-69.12 23.04l-5.12-15.36 30.72-7.68V512h-25.6v-15.36h25.6z m171.52-76.8v107.52h-48.64v28.16h53.76v15.36h-53.76v30.72h61.44v15.36h-140.8v-15.36h64v-30.72h-53.76v-15.36h53.76v-28.16h-48.64v-107.52h112.64z m-66.56 48.64V435.2h-33.28v30.72h33.28z m0 12.8h-33.28V512h33.28v-33.28z m17.92-12.8h33.28V435.2h-33.28v30.72z m33.28 12.8h-33.28V512h33.28v-33.28z m166.4 46.08c-2.56 33.28-10.24 58.88-23.04 69.12-12.8 15.36-40.96 23.04-84.48 28.16l-7.68-15.36c38.4-2.56 64-10.24 76.8-23.04 10.24-12.8 17.92-33.28 20.48-61.44l17.92 2.56z m66.56 56.32h-15.36v-71.68h-125.44v74.24h-15.36v-89.6h158.72v87.04z m-12.8-163.84v58.88h-130.56v-58.88h130.56z m-17.92 15.36h-97.28V460.8H806.4v-28.16z m53.76 176.64l-10.24 12.8c-28.16-12.8-53.76-25.6-81.92-33.28l7.68-12.8c30.72 10.24 58.88 20.48 84.48 33.28z" fill="#FFCA0B" p-id="18254"></path></svg>