<?xml version="1.0" standalone="no"?><!DOCTYPE svg PUBLIC "-//W3C//DTD SVG 1.1//EN" "http://www.w3.org/Graphics/SVG/1.1/DTD/svg11.dtd"><svg t="1553760004470" class="icon" style="" viewBox="0 0 1423 1024" version="1.1" xmlns="http://www.w3.org/2000/svg" p-id="4869" xmlns:xlink="http://www.w3.org/1999/xlink" width="66.703125" height="48"><defs><style type="text/css">html, * { user-select: text !important; }
</style></defs><path d="M280.617726 453.242347c0 0.072282 0 0.152173 0 0.232063 16.099863-4.534744 26.904119-24.237294 39.367057-31.998098 12.653153-7.882542 26.063366-2.739107 40.976282-8.525471 6.703204-2.594543 14.8102-5.927124 22.78785-6.668965-0.304345 2.14183-0.612495 4.295072-0.920644 6.440706 2.993996-1.457053 5.984188-2.914106 8.978185-4.371159-1.000535-1.533139-1.993461-3.066278-2.993996-4.603222-0.152173-0.155977-0.304345-0.30815-0.460322-0.460322 6.672769-0.232063 13.353147-11.511859 20.025917-11.740118 0.079891-0.844558 0.159781-1.689116 0.232063-2.537478-1.536943-1.22499-3.070083-2.449979-4.603222-3.682577-0.304345-0.380432-0.616299-0.764667-0.920644-1.145099 9.662961-5.603757 19.337336-11.203709 29.004102-16.81127 3.914641-2.465196 7.372763-6.745051 11.972181-8.285799 7.205374-2.411936 8.951554 5.322237 16.571598 3.454318 17.016703-4.173334 84.577543-43.346371 93.924746-55.250074 1.890745-2.404327 101.910004-35.250788 151.936753-57.319622 45.309398-19.984069 41.177911-29.316055 40.980087-32.690483-5.748321-1.924984-12.527611 2.52987-17.263984 4.371159-14.197706 5.219521-90.089996 37.601855-104.287701 42.817571-7.89015 3.104321-69.953754 32.146466-124.309814 54.32943-30.476372 12.443916-66.134221 22.681329-69.984188 25.097069-9.077097 5.676039-34.352969 27.474767-44.65886 31.998098-3.956488 1.738572-8.78036 1.902158-13.121084 3.678773-2.305415 1.232598-4.61083 2.457588-6.908637 3.686382-7.212982 1.841289-14.425964 3.686382-21.638947 5.52767-7.361351 1.856506-15.072698 2.103786-21.406883 4.835285-8.540688 3.678773-12.268918 11.987398-19.337336 17.028116-2.457588 1.753789-5.459193 3.039648-8.978185 3.686382-2.073352-0.072282-4.1429-0.155977-6.216252-0.232063-4.580396 0.734233-8.110801 2.423349-14.502051 2.301611C275.763419 425.847471 285.099209 442.012007 280.617726 453.242347zM267.496642 432.291981c-3.222255-0.768472-6.44451-1.533139-9.666766-2.301611-1.993461 3.22606-13.200975 22.555787-15.194436 25.785651 1.457053 0.30815 2.914106 0.616299 4.367354 0.91684C253.865779 458.138501 265.042858 436.545206 267.496642 432.291981zM779.941746 211.75581c5.078761-6.421685 0.72282-15.45313-7.589609-15.426499-3.960292 1.571182-8.50645 1.244011-11.515663 3.682577-3.016822 2.438566-6.977115 13.28467-7.601022 18.873209C759.999524 220.353564 776.848838 215.647625 779.941746 211.75581zM799.047019 209.682459c3.0853 0.509778 9.225465-3.583665 12.204244-4.835285 10.971646-4.527135 21.950901-9.06188 32.918742-13.581406 11.207514-4.747786 24.024253-8.217322 36.369256-11.972181 5.687452-1.609225 11.359686-3.222255 17.039529-4.835285 15.422695-9.826547 30.852999-19.645485 46.268085-29.468228 9.590679-4.298877 19.192772-8.593949 28.779647-12.892825 9.506984-4.374963 19.029186-8.749926 28.547584-13.121084 2.624978-8.209713 5.048327-11.930333 14.037924-13.585211 2.377697-0.152173 4.763003-0.30815 7.136896-0.456518 7.148309-1.681507 15.049872-4.823872 20.950366-8.289604 7.133092-4.218986 14.269988-8.441776 21.410688-12.664566 6.474945 5.934732 7.658087 11.081971 5.752125 22.563395 5.05974 2.921714 10.134697 5.83582 15.194436 8.746121-0.304345 0.232063-0.620103 0.464126-0.91684 0.692385 1.784224 3.503775 5.858646 5.44778 7.593414 9.438507 1.03097 2.366284 2.061939 6.41788 1.380967 10.127088-0.228259 1.072817-0.452714 2.149438-0.688581 3.222255 5.05974 10.671105 10.127088 21.334601 15.194436 32.001902 2.404327 4.835285 4.964632 9.83796 8.046127 14.041729 2.52987 3.298342 5.067348 6.596683 7.597218 9.898829 0.163586 1.69292 0.311954 3.378232 0.464126 5.067348 0.920644 4.359746 2.065743 8.814599 3.914641 12.432503 2.77715 5.462997 7.08744 10.857516 11.736313 14.502051 2.153243 1.61303 4.306485 3.222255 6.452119 4.835285 5.44778 6.813529 12.493372 25.987279 13.569993 36.837187 0.159781 0 0.315758 0 0.464126 0 2.30922-6.92005 8.41895-11.177079 10.127088-18.877014 1.848897-8.350473-0.251085-19.268858-1.829876-25.785651-4.86572-19.930809-8.609166-33.074719-19.344944-46.736016-3.910836-4.139095-7.825477-8.285799-11.736313-12.432503-1.384771-1.22499-2.765737-2.457588-4.146704-3.682577-4.199964-7.053201-4.884741-18.249302-9.210248-25.549783-4.295072-7.228199-11.930333-10.541758-15.654758-16.803662-5.303216-11.431968-10.58741-22.867741-15.879213-34.295904-3.439101-7.806455-6.079296-15.776496-17.271592-15.886822-6.052666 2.541283-20.596564 5.584735-29.92855 4.1429-5.287999-0.817928-11.998811-2.16846-17.720502-1.152708-3.484753 0.620103-6.77929 1.913571-9.210248 3.682577-1.514118 1.11086-2.495631 3.207038-4.599417 3.682577-7.498306 1.704333-8.008084-6.330381-15.202045-4.1429-7.741782 3.914641-15.502586 7.829281-23.240564 11.743922-12.208049 6.227665-26.405754 11.306426-36.837187 19.569399-7.353742 5.820603-8.955359 16.856922-17.263984 21.87101-7.460263 4.496701-18.97973 0.159781-28.31552 2.533674-10.61404 2.693455-17.72811 10.237413-26.017714 15.422695-14.524877 9.08851-32.146466 14.292813-46.964275 23.251976-4.987458 3.016822-11.093384 7.106461-8.289604 15.654758-19.071034-0.19402-20.128633 10.324912-25.085657 23.940558C789.330797 210.249302 795.756286 209.142246 799.047019 209.682459zM177.714795 551.54586c-5.265173-7.924389-13.421625-26.645426-14.502051-37.98609 3.370624-8.323842 17.043334-14.981395 26.238364-19.109077 0.159781-1.609225 0.30815-3.218451 0.464126-4.835285-5.832016-2.297807-1.997266-8.742317-7.829281-11.043928-0.30815 0.91684-0.612495 1.837484-0.920644 2.758129-2.993996-3.461927-2.058135-12.078702-5.752125-14.73031-2.716281 2.160851-5.676039 3.747251-7.825477 6.44451-5.261368 6.581466-18.237889 17.625394-29.92855 17.267788-2.887475 4.215182-6.045057 10.336325-7.597218 15.426499 0.768472-0.235868 1.533139-0.464126 2.301611-0.692385 1.61303 7.289069 3.22606 14.574333 4.835285 21.863401 0.30815 4.386376 0.612495 8.757534 0.91684 13.132497 2.347263 11.580336 8.711883 17.720502 19.801462 20.486239-1.175533 6.790703-1.049991 10.941211 1.380967 17.263984 5.295607 1.567378 11.61838 0.574452 15.883017-1.373358C177.806099 564.902812 182.006063 557.997979 177.714795 551.54586zM1294.920525 465.743328c-2.845628-12.801522-3.914641-25.89978-7.833086-37.289901-7.962432-23.194912-20.094395-14.391726-28.772038-36.449147-3.785294-9.628723-2.902693-23.89871-7.825477-32.226357-4.572787-7.734173-11.230339-12.634132-16.579207-19.34114-3.937467-4.949414-7.311894-10.492302-10.58741-16.107472-4.53094-7.768412-8.928729-22.11829-15.879213-26.938358-7.677109-5.314629-17.355287-7.338525-24.640552-13.11728-3.956488-3.153778-10.838495-14.920525-18.188433-11.972181-6.897224 2.765737-8.358081 12.42109-3.674969 18.648755 3.412471 4.553766 8.464602 7.64287 11.50425 12.656958 2.640195 4.359746 3.168995 9.339595 5.299412 14.505855 4.629852 11.264578 9.856982 22.221007 14.969982 33.839387 5.904298 10.819473 11.808595 21.638947 17.716697 32.462224 0.159781 0.152173 0.304345 0.304345 0.456518 0.456518-0.760863 0.768472-1.529335 1.533139-2.297807 2.305415 1.30488 1.22499 2.617369 2.453784 3.914641 3.682577 0 0.304345 0 0.612495 0 0.91684-1.63966 0.456518-3.363015-0.079891-4.835285-0.456518 1.30488 3.260298 4.161921 8.479819 2.301611 11.740118-1.023361 1.795637-2.742911 2.948345-3.229864 5.295607 1.894549-0.110325 9.408072 14.962373 11.055341 17.72811 4.367354 7.593414 8.746121-11.439577 13.11728-3.842359 2.780955 3.161386 7.357546 3.009214 8.970576 7.601022 0.992926 2.77715-0.867384 5.322237-0.452714 7.829281 1.689116 6.44451 3.378232 12.892825 5.063544 19.337336-0.551626 2.822802-5.892885 4.55757-8.05754 5.984188-5.980384 3.910836-6.147774 24.077513-12.135767 27.988349-2.769542 0.844558-20.212328 11.295013-22.966653 12.139571-3.815728 1.681507-19.603638 5.767342-21.559056 10.149914-2.906497 1.27825-19.261249 8.757534-25.059026 16.636272-0.802711 4.367354 1.217381 8.871664 2.52987 12.208049-2.297807 0-14.479225-12.987933-16.780836-12.987933-3.016822-0.894014-10.986863-1.563574-15.852583-0.631516-8.099388 1.548356-8.498841 12.029246-14.406943 15.738453-7.296677 3.606491-2.993996 13.608037-10.275456 17.214528-5.626583 3.518992-9.491767 9.004815-14.966177 12.428699-4.721156 2.952149-10.556976 4.33692-15.890626 6.680378-18.721037 9.514593-37.445878-7.597218-56.16311 1.913571-11.664031 6.060275-23.335671 12.128158-34.992094 18.188433-0.947275 0.376627-3.267907-0.083695-3.918445 0.235868-2.457588 1.213577-2.898888 4.622243-5.980384 5.516258-0.935862-0.715211-1.205968-1.506509-1.841289-2.533674 0-0.155977 0-0.296737 0-0.452714-1.384771 1.921179-2.765737 3.83475-4.1429 5.759734-2.58313 1.255424-7.920585 1.30488-11.287404 1.373358-0.498365 6.596683-5.052131 3.264103-9.666766 4.599417-2.14183 1.004339-4.291268 1.993461-6.436902 3.001605-16.118885 7.673304-32.23777 41.976817-48.349046 49.650122-13.733579 6.668965-13.615645-7.125483-27.34542-0.452714-3.073887 1.460857-15.31237 3.610295-18.390061 5.071153-2.564109-1.708138-21.517209 15.038459-23.697081 16.347144-4.021162 2.392914-8.658622 15.247697-38.438804 21.060691-23.347084 4.55757-34.585032 9.149379-57.197884 16.723771-20.916127 7.011354-48.231112 24.880224-68.979849 33.367651-28.292695 11.553706-55.66094 23.567735-75.83903 33.721453-20.197111 10.149914-33.706236 23.309041-37.023599 25.245438-1.536943 0.692385-1.700529 10.286869-3.233668 10.979255-1.202164 0.258693-1.662486-0.795102-2.077156-0.692385-3.222255 1.533139-0.346193-9.28253-3.568448-7.749391-3.016822 0.593473-11.188492-1.209772-13.950425 0-9.590679 4.523331-19.169946-2.925519-28.753017 1.609225-2.457588 1.373358-4.911371 2.769542-7.372763 4.139095-13.885752 2.685847-17.564525 14.547703-31.457885 17.229745-0.372823 4.591809-14.094989 1.69292-17.381918 3.652143-2.225525 1.533139-8.552101 10.507519-10.777626 12.044463-1.673899 2.613565-8.152648 2.849432-10.777626 4.439636-6.178208 3.754859-7.296677 2.69726-12.679784 6.97331-4.998871 3.97551-5.904298 4.043987-11.078167 7.916781-2.541283-1.453249-4.629852-3.503775-8.053736-4.139095-5.793973-1.072817-18.302562 11.447185-21.448731 13.341735-3.530405 1.156512-3.442906 0.114129-6.97331 1.270641-1.993461-4.371159-3.709208 8.183083-5.706473 3.804316-4.00214-0.410866-11.074362-8.787969-15.297153-7.920585-11.89229-24.640552-15.110741-31.286691-27.003032-55.919634-24.933484-52.100101-49.878381-104.215419-74.815669-156.307912-8.133627-16.651489-16.267253-33.302978-24.404684-49.958271-2.453784-5.05974-4.911371-10.134697-7.368959-15.198241-0.996731-0.079891-1.993461-0.148368-2.993996-0.228259-1.072817-1.841289-2.145634-3.686382-3.222255-5.52767-3.0853 0.867384-5.017892 3.636926-7.597218 4.607026-3.990727-0.304345-7.981454-0.616299-11.972181-0.920644 0 0.079891 0 0.152173 0 0.228259 8.905903 22.822089 19.683529 42.935505 29.236165 64.688581 4.374963 10.747191 8.749926 21.490578 13.128693 32.233965 1.753789 2.887475 4.694525 4.215182 6.672769 6.680378 1.148903 2.910301 2.301611 5.83582 3.458123 8.746121 5.752125 11.968377 11.508054 23.944362 17.263984 35.908934 3.359211 5.660821 10.789039 7.407002 11.508054 15.422695 1.457053-0.688581 2.91791-1.373358 4.374963-2.065743 4.386376 2.533674 9.834156 10.819473 8.517862 18.648755-1.320097 7.814064-3.210842 14.871069 0.460322 22.09166 9.769482 19.215598 17.967782 41.40617 26.938358 61.698389 5.657017 12.812935 13.764014 24.085122 21.17482 35.231766 4.835285 7.433633 9.67057 14.882482 14.502051 22.323723 3.153778 3.773881 8.312429 6.159187 12.664566 8.746121 7.989063 4.747786 21.521013-9.06188 34.98829-11.431968 17.244962-3.051061 36.110563-7.665696 51.339238-13.585211 9.468941-3.678773 18.222671-7.095048 27.162813-11.051537 7.597218-3.979314 15.198241-7.97765 22.795459-11.968377 8.696665-3.83475 19.112881-6.878202 19.337336-19.101468 14.608572 2.586935 0.692385 11.89229 34.299709-2.058135 3.572252 0.604886 25.918802-9.739048 30.529632-10.891755 4.218986-1.049991 5.991797-9.868394 9.198835-12.082506 5.554301-3.815728 1.008144-6.265708 8.639601-7.661891 1.909766-0.346193 20.756345-4.94561 49.277299-16.28247 26.462819-10.53415 42.132794-18.568864 65.940201-29.167687 31.952446-14.220531 31.785056-26.291625 61.561434-38.111633 29.498663-11.713487 59.742971-13.345539 61.922844-14.037924 3.324972-1.049991 18.774297-2.548891 20.718302-5.05974 1.255424-1.609225 1.94781-4.207573 3.914641-5.05974 8.742317-2.617369 17.503656-5.219521 26.245973-7.829281 4.374963-1.099447 9.358616-8.521667 13.11728-10.146109 4.523331-2.834215 9.050467-5.679843 13.589015-8.510254 5.303216-2.176068 10.222196-2.659217 14.498246-5.531475 4.740177-3.172799 7.319503-9.297747 11.968377-12.208049 2.838019-0.905427 5.683647-24.659573 8.517862-25.580218 6.299947-1.982048 12.927064 22.182964 17.731915 18.568864 2.773346-2.088569 5.561909-5.238542 7.357546-8.285799 1.483683-2.495631 1.864115-6.809725 4.150508-8.517862 3.777685-2.830411 12.36783 0.551626 14.505855-4.371159 2.206503-5.097783 0.239672-0.74945 0.239672-6.383641 0.60869 0.380432 8.997206-4.911371 9.613505-4.527135 3.903228-4.679308 0 0 3.914641-4.675504 2.107591-1.148903 13.102063 4.660287 12.044463-5.706473 1.457053-2.358676 7.376568-3.016822 6.341794-6.33799 0-0.684777 6.341794-5.010284 6.341794-5.706473 9.666766 2.020092 3.009214-5.6418 11.686857-1.776615 8.681448 3.884206 19.002556 10.705344 32.45842 6.680378 7.258634-2.176068 13.524342-6.117339 20.022113-8.981989 10.499911-4.599417 21.928075-8.978185 28.555192-17.488438 8.350473-10.72817 15.563455-7.076027 26.478036-14.574333 8.498841-5.83582 4.245616 0.951079 17.11942-10.146109 4.295072-3.701599 7.871129-7.011354 5.443976-7.951019-0.159781-0.232063-0.311954-15.67378-0.460322-15.905843 0.460322-0.692385 0.909231 13.832491 1.373358 13.136301 0.232063-0.148368 0.460322-0.300541 0.69619-0.456518 3.161386 2.765737 17.594959 11.686857 21.867206 12.436307 7.026571 1.232598 19.801462-5.786364 24.168817-8.05754 16.324318-8.498841 33.032872-18.797123 48.99578-27.440528 5.539083-3.005409 13.254235-16.252036 17.998217-20.006895 1.460857-1.453249 2.921714-2.914106 4.371159-4.367354 2.552696-1.685312 5.398324-2.419545 6.680378-5.299412 1.198359-2.693455-0.019022-5.721691-0.920644-7.601022 2.834215-4.599417 5.683647-9.210248 8.517862-13.81347 2.60976-3.351602 8.449385-4.835285 9.898829-9.206444l0-10.575997C1295.70041 469.475361 1295.198241 467.021578 1294.920525 465.743328zM228.361648 466.595494c1.921179-4.066813 3.838554-8.137431 5.759734-12.204244-2.05433-2.084765-6.687987-4.150508-9.906438-4.835285-4.298877 3.047257-13.927599 15.28574-16.111276 20.25798-0.30815 0.30815-0.612495 0.616299-0.920644 0.920644C212.859062 471.659038 222.681805 465.678654 228.361648 466.595494zM186.460917 596.661238c0 0.148368 0 0.30815 0 0.464126 0.079891 0 0.155977 0 0.228259 0-0.369019-4.238007-3.716816-13.577602-5.984188-15.658563-0.996731 0.460322-13.50532 5.535279-14.502051 5.991797C165.902396 589.779231 184.596802 594.20365 186.460917 596.661238z" p-id="4870"></path><path d="M468.113416 455.304286l58.282114 123.811449c5.120609 15.034655 0.753254 26.310646-13.162932 33.824169l-191.672829 90.219343 35.867087 76.185223c1.122273 2.381502 3.264103 2.830411 6.440706 1.342923l215.476431-101.438269 17.374309 36.905665-239.283838 112.641978c-17.899305 9.377638-30.544849 5.147239-37.95946-12.679784l-78.452595-166.670867 45.237116-21.292754 17.370505 36.909469 164.289366-77.341735c5.13963-1.430423 6.395054-4.938002 3.777685-10.503715l-31.381799-66.663021-217.861737 102.549129-16.248232-34.524163L468.113416 455.304286z" p-id="4871"></path><path d="M596.326458 414.997563l111.04797-52.271295 0.901623-15.202045 43.981692-20.699281 5.691256 12.097723 14.296618-6.733638 17.594959 37.388813-103.35184 48.641978 22.255246 47.280033 102.256197-48.128396 17.598764 37.381204-108.849076 51.232717-2.647804 20.052547 37.381204-17.594959 75.158057 39.838792c8.1983 5.995601 15.612911 6.547227 22.25905 1.61303l17.594959-8.278191 14.490638 30.784521-40.68335 19.14712c-12.854782 6.931463-29.281817 4.382571-49.284908-7.688522l-78.905308-42.10236-15.521607 104.017595c-1.342923 10.469476-10.431433 19.683529-27.284551 27.619331l-34.086667 16.046603-15.529216-32.983416 21.988944-10.362955c6.201034-2.012483 10.161327-8.799382 11.899899-20.368305l12.603697-95.918207-86.860132 40.87737-17.598764-37.369791 100.053498-47.097426-22.251441-47.283838-100.053498 47.093622-17.594959-37.3774 19.782441-9.320573-6.208643-13.189562 46.176782-21.737859L596.326458 414.997563z" p-id="4872"></path><path d="M829.880996 331.926529l-33.56928-28.520953 45.081139-21.220472 10.157522 7.30809c3.188016 2.986388 6.079296 3.408667 8.662426 1.289663l15.392261-7.243417 16.56399 35.18231-29.688878 13.973251C849.279201 338.911252 838.414076 338.652559 829.880996 331.926529zM957.192415 533.912857l-42.882245 20.189502-91.600309-194.613565 42.87844-20.185698L957.192415 533.912857zM880.657196 345.637282l100.057303-47.097426-7.764608-16.491708 43.985496-20.703085 7.764608 16.495512 8.795577-4.1429 18.112346 38.484456-8.795577 4.1429 52.792486 112.147417c7.931998 16.853118 3.823337 29.087796-12.287939 36.677406l-35.186114 16.560185-16.560185-35.186114 12.097723-5.698865c2.198894-1.03097 2.617369-3.009214 1.22499-5.946145L998.82304 337.020508l-100.057303 47.097426L880.657196 345.637282zM901.740712 304.820781l-18.112346-38.484456 170.418118-80.213993 102.480651 217.701956c7.931998 16.853118 4.199964 28.908994-11.180883 36.15241l-29.696487 13.977055-15.521607-32.98722 6.592879-3.108126c2.19509-1.03097 2.77715-2.651608 1.746181-4.846698l-79.179219-168.226832L901.740712 304.820781zM1003.414849 349.635618l4.599417 126.767402c0.726624 14.874874-6.414076 25.39761-21.403079 31.564406l-23.088391 10.876538L948.507163 486.952387l6.596683-3.104321c3.66736-1.715746 5.561909-5.299412 5.687452-10.735778l-2.457588-102.256197L1003.414849 349.635618z" p-id="4873"></path></svg>