<?xml version="1.0" standalone="no"?><!DOCTYPE svg PUBLIC "-//W3C//DTD SVG 1.1//EN" "http://www.w3.org/Graphics/SVG/1.1/DTD/svg11.dtd"><svg t="1552980541956" class="icon" style="" viewBox="0 0 1024 1024" version="1.1" xmlns="http://www.w3.org/2000/svg" p-id="31418" id="mx_n_1552980541958" xmlns:xlink="http://www.w3.org/1999/xlink" width="48" height="48"><defs><style type="text/css">html, * { user-select: text !important; }
</style></defs><path d="M887.808 292.352c-5.632-7.68-14.848-12.8-25.6-12.8H251.392c-36.864 0-66.56-29.696-66.56-66.56s30.208-66.56 66.56-66.56h610.816c17.92 0 31.744-14.336 31.744-31.744s-14.336-31.744-31.744-31.744H251.392c-72.192 0-130.56 58.368-130.56 130.56 0 6.656 0.512 13.312 1.536 19.968v610.816c-2.56 21.504 3.584 42.496 18.432 59.904 19.968 24.064 54.272 37.888 90.624 37.888h556.544c63.488 0 115.2-43.008 115.2-95.232V320c0-11.776-6.144-22.016-15.36-27.648z" p-id="31419"></path><path d="M522.752 343.552h176.64v258.56l-54.272-66.56c-9.728-11.776-23.552-18.432-38.912-17.92-15.36 0-29.184 7.168-38.4 19.456l-45.568 60.416 0.512-253.952z" fill="#E1FCE7" p-id="31420"></path><path d="M787.968 877.568H231.424c-21.504 0-35.84-8.192-41.984-15.36-4.096-4.608-4.096-8.192-3.584-10.752l0.512-2.56V326.144c19.456 11.264 41.472 17.408 65.024 17.408h206.848v346.112c0 14.336 9.216 26.624 22.528 31.232 13.312 4.608 28.16 0 36.864-11.264l89.6-118.784 97.28 119.808c6.144 7.68 15.872 12.288 25.6 12.288 3.584 0 7.168-0.512 10.752-2.048 13.312-4.608 22.016-16.896 22.016-31.232V343.552h75.776v502.272c0.512 15.36-20.48 31.744-50.688 31.744z" fill="#E1FCE7" p-id="31421"></path></svg>