<svg class="icon" viewBox="0 0 1024 1024" xmlns="http://www.w3.org/2000/svg" width="48" height="48"><path d="M590.438 642.048L451.994 517.325 313.549 642.048V205.824h-55.296s-89.088 10.445-88.064-62.054c.819-65.741 79.053-61.85 79.053-61.85l654.95-.82c11.878 0 27.648-9.625 27.648-35.634 0-25.805-27.648-26.624-27.648-26.624h-645.94C99.739 19.046 92.16 152.576 92.16 152.576v703.283c0 120.013 129.229 151.347 129.229 151.347h507.494c169.165 0 193.741-124.518 193.741-124.518V205.824h-332.39l.204 436.224zm0 0"/></svg>