<svg class="icon" viewBox="0 0 1024 1024" xmlns="http://www.w3.org/2000/svg" width="48" height="48"><defs><style>*{user-select:text!important}</style></defs><path d="M910.675 338.533H748.561v100.632h162.114V338.533zm0 128.114H748.561V567.34h162.114V466.647zm0-256.166H748.561v100.632h162.114V210.48zm0 507.742H748.561v100.695h162.114V718.223zm74.513-608.373h-389.93c-4.653 0-9.09.955-13.153 2.673V3.76L3.76 118.97v785.996l578.347 115.273V916.93a33.58 33.58 0 0 0 13.153 2.681h389.93c19.355 0 35.052-16.44 35.052-36.604V146.454c-.001-20.224-15.698-36.604-35.053-36.604zm-591.5 571.834l-70.108-4.593-52.548-132.704-56.954 123.584-65.765-4.59 83.26-151.007-74.448-164.657 65.701-4.593 43.801 123.523h8.747l48.205-132.703 70.108-4.53-87.601 173.84 87.602 178.43zm582.751 192.142H582.106v-54.907H713.51V718.224H582.106v-22.83H713.51v-100.63H582.106V567.34H713.51V466.647H582.106v-27.482H713.51V338.533H582.106v-27.42H713.51V210.48H582.106v-54.906H976.44v718.25zm-65.764-279.063H748.561v100.632h162.114V594.763z"/></svg>