<svg class="icon" viewBox="0 0 1024 1024" xmlns="http://www.w3.org/2000/svg" width="48" height="48"><defs><style>*{user-select:text!important}</style></defs><path d="M936.465 284.639L719.872 49.268c-10.24-11.165-24.312-20.546-39.407-28.078v279.123h267.429a125.72 125.72 0 0 0-11.413-15.658"/><path d="M680.465 596.232h-338.25a42.281 42.281 0 1 1 0-84.562h338.25a42.281 42.281 0 0 1 0 84.562m0 211.407h-338.25a42.281 42.281 0 1 1 0-84.563h338.25a42.281 42.281 0 0 1 0 84.563m295.638-422.813H680.465a84.728 84.728 0 0 1-84.646-84.728V4.36H130.56a84.58 84.58 0 0 0-84.315 84.645v845.428a84.563 84.563 0 0 0 84.232 84.612h761.724a84.563 84.563 0 0 0 84.233-84.777V387.055c0-.726-.215-1.486-.248-2.196"/></svg>