<svg class="icon" viewBox="0 0 1024 1024" xmlns="http://www.w3.org/2000/svg" width="48" height="48"><defs><style>*{user-select:text!important}</style></defs><path d="M577.558 307.849l-21.345-18.7c-.063-.062-.186-.124-.28-.187l-44.305-38.689-53.753 47.565L127.01 587.424v332.144c0 45.887 37.455 83.098 83.61 83.098h183.968V735.869c0-27.513 22.448-49.834 50.162-49.834h133.773c27.714 0 50.178 22.321 50.178 49.834v266.798h183.967c46.17 0 83.61-37.212 83.61-83.098V586.772L578.522 308.687l-.964-.84z"/><path d="M990.638 418.164l-94.36-82.6v-181.29c0-36.716-29.953-66.483-66.896-66.483-36.941 0-66.893 29.767-66.893 66.482v64.197L556.213 37.911c-25.291-22.103-63.166-22.103-88.425 0L33.348 418.164c-27.73 24.248-30.402 66.265-5.98 93.808 24.437 27.545 66.692 30.22 94.407 5.938L512 176.377 902.243 517.91c12.707 11.131 28.461 16.6 44.182 16.6 18.549 0 37.004-7.616 50.209-22.538 24.42-27.56 21.749-69.56-5.996-93.808z"/></svg>