<svg class="icon" viewBox="0 0 1024 1024" xmlns="http://www.w3.org/2000/svg" width="48" height="48"><path d="M990.618 443.648L603.188 40.192C579.122 15.104 546.867 1.28 512.41 1.28c-34.458 0-66.663 13.824-90.727 38.912L34.202 443.597C-5.734 485.325-.614 521.318 6.042 536.32c4.659 10.752 20.53 40.038 66.355 40.038h56.832v310.426c0 70.502 50.534 136.858 122.47 136.858h164.864v-328.55c0-35.226-5.273-54.836 30.72-54.836h130.304c35.994 0 30.618 19.61 30.618 54.835v328.55H773.12c71.936 0 122.522-66.355 122.522-136.857V576.358h56.78c45.824 0 61.748-29.337 66.407-40.038 6.656-15.002 11.776-50.995-28.16-92.672z"/></svg>