<svg xmlns="http://www.w3.org/2000/svg" viewBox="0 0 512.001 512.001"><linearGradient id="a" gradientUnits="userSpaceOnUse" y1="258.001" x2="512.001" y2="258.001" gradientTransform="matrix(1 0 0 -1 0 514.001)"><stop offset="0" stop-color="#00f2fe"/><stop offset=".021" stop-color="#03effe"/><stop offset=".293" stop-color="#24d2fe"/><stop offset=".554" stop-color="#3cbdfe"/><stop offset=".796" stop-color="#4ab0fe"/><stop offset="1" stop-color="#4facfe"/></linearGradient><path d="M404.547 252.116l77.447-77.236C501.344 155.531 512 129.806 512 102.443s-10.656-53.088-30.005-72.436C462.647 10.657 436.922.001 409.559.001s-53.089 10.656-72.438 30.005l-77.053 77.052L158.425 5.83a20.005 20.005 0 0 0-28.325.098L5.79 131.459c-7.757 7.833-7.713 20.464.098 28.244L106.86 260.268l-56.034 56.034a20 20 0 0 0-5.125 8.779L.733 486.638a20 20 0 0 0 24.732 24.601l161.557-45.891a20 20 0 0 0 8.699-33.359L93.869 329.828 331.184 92.513l88.258 88.258-181.674 181.178a19.998 19.998 0 0 0 .034 28.356l116.76 115.891a20 20 0 0 0 14.089 5.805h.086a19.999 19.999 0 0 0 14.125-5.927l123.35-124.559c7.757-7.833 7.713-20.465-.098-28.244L404.547 252.116zM143.395 436.159l-94.568 26.862 26.485-95.152 68.083 68.29zm-95.15-290.725l96.165-97.109 31.734 31.604-39.4 40.045c-7.746 7.874-7.644 20.537.23 28.283A19.931 19.931 0 0 0 151 154.001a19.944 19.944 0 0 0 14.258-5.973l39.229-39.871 27.298 27.187-96.64 96.64-86.9-86.55zm311.224-81.206l5.938-5.938c11.793-11.794 27.473-18.289 44.152-18.289s32.358 6.495 44.152 18.29C465.505 70.084 472 85.764 472 102.443s-6.495 32.359-18.271 44.133l-5.965 5.949-88.295-88.297zm9.06 399.473l-88.281-87.624 95.977-95.714 26.981 26.872-38.398 38.676c-7.782 7.839-7.736 20.502.103 28.284a19.934 19.934 0 0 0 14.091 5.807 19.937 19.937 0 0 0 14.193-5.909l38.354-38.631 32.209 32.078-95.229 96.161z" fill="url(#a)"/></svg>