<?xml version="1.0" standalone="no"?><!DOCTYPE svg PUBLIC "-//W3C//DTD SVG 1.1//EN" "http://www.w3.org/Graphics/SVG/1.1/DTD/svg11.dtd"><svg t="1553517266453" class="icon" style="" viewBox="0 0 1024 1024" version="1.1" xmlns="http://www.w3.org/2000/svg" p-id="15140" xmlns:xlink="http://www.w3.org/1999/xlink" width="48" height="48"><defs><style type="text/css">html, * { user-select: text !important; }
</style></defs><path d="M511.625457 0a511.625457 511.625457 0 1 0 511.625457 511.625457A511.625457 511.625457 0 0 0 511.625457 0z m-56.181419 187.271397a56.181419 56.181419 0 0 1 112.362838 0v320.608632a56.181419 56.181419 0 0 1-112.362838 0z m56.181419 641.217264a320.608632 320.608632 0 0 1-224.725676-546.83248 56.181419 56.181419 0 0 1 77.904901 78.653987 208.245794 208.245794 0 1 0 292.892465 0 56.181419 56.181419 0 0 1 78.653987-80.901243 320.608632 320.608632 0 0 1-224.725677 549.079736z" p-id="15141"></path></svg>