<svg class="icon" viewBox="0 0 1028 1024" xmlns="http://www.w3.org/2000/svg" width="48.188" height="48"><defs><style>*{user-select:text!important}</style></defs><path d="M1006.14 213.654L810.353 17.867c-27.03-27.024-70.852-27.024-97.878 0L516.683 213.654c-27.025 27.024-27.025 70.846 0 97.871l195.792 195.787c27.025 27.024 70.847 27.024 97.878 0l195.787-195.787c27.03-27.024 27.03-70.841 0-97.871zM761.413 458.378L565.627 262.592 761.413 66.804 957.2 262.59 761.413 458.379zM346.1 54.938H69.222C30.979 54.938.005 85.912.005 124.155v276.872c0 38.243 30.98 69.217 69.217 69.217H346.1c38.243 0 69.217-30.974 69.217-69.217V124.149c0-38.237-30.974-69.212-69.217-69.212zm0 553.749H69.222c-38.243 0-69.217 30.98-69.217 69.217v276.872c0 38.248 30.98 69.224 69.217 69.224H346.1c38.243 0 69.217-30.98 69.217-69.224V677.904c0-38.248-30.974-69.217-69.217-69.217zm553.75 0H622.978c-38.248 0-69.218 30.98-69.218 69.217v276.872c0 38.248 30.975 69.224 69.218 69.224H899.85c38.248 0 69.217-30.98 69.217-69.224V677.904c0-38.248-30.974-69.217-69.217-69.217z"/></svg>