<?xml version="1.0" standalone="no"?><!DOCTYPE svg PUBLIC "-//W3C//DTD SVG 1.1//EN" "http://www.w3.org/Graphics/SVG/1.1/DTD/svg11.dtd"><svg t="1552982431933" class="icon" style="" viewBox="0 0 1024 1024" version="1.1" xmlns="http://www.w3.org/2000/svg" p-id="35066" xmlns:xlink="http://www.w3.org/1999/xlink" width="48" height="48"><defs><style type="text/css">html, * { user-select: text !important; }
</style></defs><path d="M876.745387 528.315733c1.979733-15.36 3.413333-30.72 3.413333-47.104 0-16.315733-1.4336-31.675733-3.413333-47.104l103.560533-79.189333a23.893333 23.893333 0 0 0 5.9392-30.72L887.94112 157.832533c-5.870933-10.581333-19.114667-14.404267-29.969067-10.581333l-122.197333 48.059733a361.335467 361.335467 0 0 0-83.012267-47.104L634.19392 20.957867A23.7568 23.7568 0 0 0 610.095787 0.682667H413.692587c-12.288 0-22.528 8.669867-24.098134 20.206933l-18.6368 127.317333a378.948267 378.948267 0 0 0-82.944 47.104L165.679787 147.319467a24.234667 24.234667 0 0 0-30.037334 10.581333L37.61152 324.130133a23.3472 23.3472 0 0 0 5.870933 30.72L147.042987 434.176a372.053333 372.053333 0 0 0-3.413334 47.104c0 15.837867 1.4336 31.675733 3.413334 47.035733L43.414187 607.573333a23.893333 23.893333 0 0 0-5.870934 30.72l98.235734 166.2976c5.870933 10.581333 19.114667 14.404267 29.969066 10.581334l122.197334-48.059734c25.6 19.182933 53.0432 35.089067 83.012266 47.104l18.6368 127.317334a23.825067 23.825067 0 0 0 24.098134 20.138666H610.095787c12.288 0 22.528-8.6016 24.098133-20.138666l18.6368-127.317334a378.948267 378.948267 0 0 0 82.944-47.104l122.2656 48.059734c11.332267 4.3008 24.098133 0 30.037333-10.581334l98.167467-166.229333a23.893333 23.893333 0 0 0-5.9392-30.72l-103.560533-79.325867zM511.92832 649.352533c-94.754133 0-171.895467-75.434667-171.895467-168.1408s77.141333-168.1408 171.895467-168.1408S683.75552 388.437333 683.75552 481.211733c0 92.7744-77.141333 168.1408-171.8272 168.1408z" p-id="35067"></path></svg>