<?xml version="1.0" standalone="no"?><!DOCTYPE svg PUBLIC "-//W3C//DTD SVG 1.1//EN" "http://www.w3.org/Graphics/SVG/1.1/DTD/svg11.dtd"><svg t="1555041711214" class="icon" style="" viewBox="0 0 1028 1024" version="1.1" xmlns="http://www.w3.org/2000/svg" p-id="7063" xmlns:xlink="http://www.w3.org/1999/xlink" width="48.1875" height="48"><defs><style type="text/css">html, * { user-select: text !important; }
</style></defs><path d="M1006.13966 213.65358L810.353064 17.866985c-27.029439-27.02445-70.852386-27.02445-97.877834 0L516.682649 213.65358c-27.02445 27.02445-27.02445 70.8464 0 97.871848l195.792581 195.786596c27.02445 27.02445 70.8464 27.02445 97.877834 0l195.786596-195.786596c27.029439-27.02445 27.029439-70.841412 0-97.871848z m-244.72651 244.724515L565.626554 262.5915 761.41315 66.804904l195.786595 195.786596-195.786595 195.786595zM346.099785 54.93781H69.221881c-38.243069 0-69.217231 30.974162-69.217232 69.217232V401.02696c0 38.243069 30.980148 69.217231 69.217232 69.217231h276.877904c38.243069 0 69.217231-30.974162 69.217231-69.217231V124.149056c0-38.237083-30.974162-69.212243-69.217231-69.212243z m0 553.748825H69.221881c-38.243069 0-69.217231 30.980148-69.217232 69.217232v276.871918c0 38.248057 30.980148 69.224215 69.217232 69.224215h276.877904c38.243069 0 69.217231-30.980148 69.217231-69.224215V677.903867c0-38.248057-30.974162-69.217231-69.217231-69.217232z m553.749823 0H622.977689c-38.248057 0-69.217231 30.980148-69.217231 69.217232v276.871918c0 38.248057 30.974162 69.224215 69.217231 69.224215h276.871919c38.248057 0 69.217231-30.980148 69.217231-69.224215V677.903867c0-38.248057-30.974162-69.217231-69.217231-69.217232z" p-id="7064"></path></svg>