<?xml version="1.0" standalone="no"?><!DOCTYPE svg PUBLIC "-//W3C//DTD SVG 1.1//EN" "http://www.w3.org/Graphics/SVG/1.1/DTD/svg11.dtd"><svg t="1553959527720" class="icon" style="" viewBox="0 0 1462 1024" version="1.1" xmlns="http://www.w3.org/2000/svg" p-id="4869" xmlns:xlink="http://www.w3.org/1999/xlink" width="68.53125" height="48"><defs><style type="text/css">html, * { user-select: text !important; }
</style></defs><path d="M700.350959 633.754023l5.425-5.424a5.266 5.266 0 0 1 7.453999 0l82.168995 82.162995a5.254 5.254 0 0 1 1.097 1.603h287.389983a18.387999 18.387999 0 0 0 18.399999-18.375999V270.624044a18.387999 18.387999 0 0 0-18.399999-18.380999H357.553979a18.387999 18.387999 0 0 0-18.392999 18.380999V693.720019a18.387999 18.387999 0 0 0 18.392999 18.375999h394.853977l-61.477996-61.470996a5.266 5.266 0 0 1 0-7.448l3.851999-3.851999-45.015997-45.015998a108.119994 108.119994 0 0 1-70.301996 25.811999c-59.777996 0-108.242994-48.233997-108.242994-107.729994 0-59.503997 48.464997-107.730994 108.242994-107.730994 59.776996 0 108.241994 48.226997 108.241994 107.729994h55.449996v5.254h-55.577996a107.157994 107.157994 0 0 1-31.996998 71.338995l44.770997 44.770998z m93.011995 86.215995l-12.817 12.823999a5.266 5.266 0 0 1-7.447999 0l-12.817-12.823999H357.552979a26.267998 26.267998 0 0 1-26.279998-26.249999V407.280036H85.752995v-10.499999h245.519986V270.617044a26.267998 26.267998 0 0 1 26.279998-26.249998h29.169998v-28.919999a26.267998 26.267998 0 0 1 26.279999-26.254998h726.333957a26.267998 26.267998 0 0 1 26.279999 26.255998v423.095976a26.267998 26.267998 0 0 1-26.279999 26.255998h-29.169998v28.925998c0 5.911-1.95 11.359999-5.247 15.747999h120.162993v10.502h-431.719974zM682.45096 512.38403c0-56.589997-46.105997-102.476994-102.987994-102.476994-56.875997 0-102.982994 45.886997-102.982994 102.482994 0 56.595997 46.106997 102.476994 102.982994 102.476994 55.107997 0 100.104994-43.071997 102.853994-97.222994h-21.184999c-2.718 42.540998-38.244998 76.201996-81.669995 76.201995-45.191997 0-81.832995-36.469998-81.832995-81.455995 0-44.990997 36.640998-81.455995 81.833995-81.455995 45.197997 0 81.839995 36.464998 81.839995 81.455995h21.147999z m-26.401998 0c0-42.077998-34.288998-76.195996-76.585996-76.195996s-76.579996 34.117998-76.579995 76.195996 34.281998 76.201996 76.579995 76.201996c40.529998 0 73.689996-31.313998 76.402996-70.947996h-85.629995v-5.254h85.812995z m454.117973 144.529992h29.169998a18.387999 18.387999 0 0 0 18.393999-18.374999v-423.089976a18.387999 18.387999 0 0 0-18.393999-18.375999H413.002976a18.387999 18.387999 0 0 0-18.399999 18.375999v28.924999h689.283959a26.267998 26.267998 0 0 1 26.279999 26.255998v386.289978z m-756.361956 194.439988h26.402999v-10.506999h-26.408999v-26.279999h-10.561999v26.279999h-26.401999v10.507999h26.401999v26.285999h10.561999v-26.285999zM36.964998 588.593026h26.401998V578.080026H36.964998v-26.273998H26.401998v26.279998H0v10.507h26.401998v26.274998h10.563v-26.279998zM327.396981 89.337055h26.407998V78.829055h-26.407998V52.550057H316.839981v26.279998h-26.408998v10.508h26.408998v26.279998h10.556v-26.279998z m1108.935935 394.145977h26.401998v-10.508h-26.401998v-26.279998h-10.562v26.279998h-26.402998v10.508h26.402998v26.279998h10.562v-26.279998zM1357.09992 709.469018v10.501h-89.725994v-10.5h89.719994z m-31.746998-137.959991a23.695999 23.695999 0 0 1-23.744998-23.647999 23.695999 23.695999 0 0 1 23.744998-23.646999 23.695999 23.695999 0 0 1 23.744999 23.646999 23.695999 23.695999 0 0 1-23.744999 23.647999z m0-7.874a15.815999 15.815999 0 0 0 15.857999-15.773999 15.815999 15.815999 0 0 0-15.857999-15.766999 15.815999 15.815999 0 0 0-15.858999 15.766999 15.815999 15.815999 0 0 0 15.858999 15.773999z m-132.011992 296.916983a23.695999 23.695999 0 0 1-23.750999-23.647999 23.695999 23.695999 0 0 1 23.744999-23.647999 23.695999 23.695999 0 0 1 23.744999 23.647999 23.695999 23.695999 0 0 1-23.744999 23.647999z m0-7.88a15.815999 15.815999 0 0 0 15.857999-15.767999 15.815999 15.815999 0 0 0-15.863999-15.766999 15.815999 15.815999 0 0 0-15.858999 15.766999 15.815999 15.815999 0 0 0 15.858999 15.766999zM744.476956 44.661057a22.379999 22.379999 0 0 1-22.427998-22.329998A22.379999 22.379999 0 0 1 744.482956 0.00006c12.384999 0 22.428999 9.994999 22.428999 22.330999a22.379999 22.379999 0 0 1-22.428999 22.330998z m0-5.246999a17.125999 17.125999 0 0 0 17.174999-17.083999 17.125999 17.125999 0 0 0-17.174999-17.082999 17.125999 17.125999 0 0 0-17.174999 17.082999 17.125999 17.125999 0 0 0 17.174999 17.083999z m-214.442987 455.769973l-5.826-1.743a57.887997 57.887997 0 0 1 28.492999-34.514998l2.833999 5.376a51.810997 51.810997 0 0 0-25.499998 30.881998z m40.200998-3.822v-5.246999H631.499963v5.246999h-61.263996z m0 52.554997v-5.247H631.499963v5.247h-61.263996z m-51.499997 407.164976v10.58l-16.650999 1.646v8.312999h-12.11v-7.314c-7.15 0.506-15.175999 1.012-24.092998 1.518l-1.645-11.341999c11.103999-0.506 19.685999-0.927 25.737998-1.262v-7.057999h-21.575998l-2.773-10.586c2.438-2.767 5.047-6.51 7.819999-11.214999h-11.092999v-11.591999h16.516999c0.841-2.011 1.767-4.449 2.78-7.307l13.114999 2.145-2.011 5.162h28.504998v11.591999H487.449971a104.786994 104.786994 0 0 1-6.557999 11.092999h9.081999v-7.185999h12.11v7.185999h17.911999v10.708h-17.917999v6.301999c1.523-0.17 4.376-0.42 8.580999-0.756l8.076-0.627z m19.551998-4.789999c-1.512 9.994999-4.962 18.898999-10.342999 26.711998l-9.080999-9.445999c5.21-7.735 7.947-16.845999 8.196999-27.346999v-21.173999c16.394999-1.59 28.845998-4.327 37.341998-8.189999l8.575999 9.701999c-9.251999 4.035-20.520999 6.808-33.807998 8.32v9.951999h35.952998v11.47H563.519967v25.451998H550.779968v-25.451998h-12.494z m24.475999 27.851998v49.263997h-13.371999v-4.407H489.339971v4.407h-13.371999v-49.269997h86.788995z m-73.422996 33.764998h60.050997v-6.424H489.339971v6.424z m0-16.759999h60.050997v-6.175H489.339971v6.174z m108.241994-79.255995h92.334995v12.846999h-44.149998v7.313999c-0.256 7.643-0.72 13.986999-1.39 19.027999h55.504997v12.725h-37.719998v39.067997c0 4.114 1.89 6.168 5.68 6.168h13.499999c2.267 0 3.992-0.92 5.168-2.774 1.341-1.676 2.274-7.35 2.773-17.003999l12.366999 4.157c-1.097 13.602999-3.072 21.672999-5.93 24.195998-2.609 2.432-6.558 3.65-11.859999 3.65h-20.052999c-9.841999 0-14.759999-5.253-14.759999-15.753999v-41.706997h-6.815c-2.352 10.921999-5.546 20.203999-9.586999 27.852998-7.82 13.853999-20.434999 24.439999-37.847998 31.753998l-7.435999-11.725999c17.235999-7.893 28.925998-17.809999 35.069998-29.736999 2.437-5.375 4.497-11.426999 6.179999-18.143998h-39.103998v-12.725h41.369998c0.763-6.052 1.262-12.396999 1.518-19.027999v-7.313999h-34.818998v-12.846999z m187.071989 48.756997a138.253992 138.253992 0 0 1-5.93 11.726999l-8.197999-10.208999c6.979-13.859999 11.646999-32.386998 13.999999-55.571997l12.871999 2.267a300.859982 300.859982 0 0 1-2.401 15.626999h31.539999v12.725999h-6.814c-0.756 20.246999-4.37 37.469998-10.848999 51.664997 5.973 9.659999 13.164999 17.309999 21.575998 22.934999l-7.575999 11.213999c-7.734-5.625-14.547999-13.017999-20.435999-22.178999a87.464995 87.464995 0 0 1-22.068999 23.062999l-7.063999-11.336999c9.081999-5.972 16.443999-13.992999 22.075998-24.073999-4.035-8.063-7.607-17.344999-10.720999-27.852998z m7.697-23.433999l-1.39 5.04c2.689 12.012999 6.18 22.812999 10.471999 32.387998 3.614-10.836999 5.674-23.311999 6.18-37.421998H792.349954z m-44.155998 29.364998a77.516995 77.516995 0 0 1-1.89 5.29h25.232999v11.091999c-1.938 7.137-5.68 13.523999-11.233 19.149999 4.462 1.932 9.081999 4.156 13.878 6.68l-7.192 10.585999a201.442988 201.442988 0 0 0-17.155999-8.946999c-8.07 5.12-18.454999 9.367999-31.156998 12.725999l-6.308-11.335999c8.916999-2.024 16.650999-4.54 23.214999-7.564a988.330942 988.330942 0 0 0-15.772999-6.301999c3.03-5.04 5.68-9.829999 7.947999-14.365H715.399958v-11.719999h17.533999c1.847-5.12 2.688-7.393 2.523-6.802l12.737999 1.512z m11.227 17.003999h-18.284999c-1.097 2.103-2.821 5.174-5.18 9.203 2.694 0.841 6.643 2.267 11.859999 4.284 5.217-4.113 9.080999-8.610999 11.605-13.481z m-31.783999-74.465995c2.773 4.535 5.253 9.489999 7.435 14.871999l-10.086999 4.534a100.257994 100.257994 0 0 0-8.197-15.876999l10.848999-3.535z m45.282998 4.406999a84.716995 84.716995 0 0 1-9.587 15.499l-9.586999-5.04c3.535-5.12 6.48-10.287999 8.831999-15.499999l10.342 5.039999z m-57.143997 16.133h23.464999v-22.812999h12.109999v22.812999h21.440999v11.463999h-21.439999v0.256c6.557 2.602 13.242999 5.625 20.049999 9.068999l-6.807 10.336a207.354988 207.354988 0 0 0-13.243999-9.83v13.225h-12.109999v-19.776999c-4.29 8.568999-10.933999 16.089999-19.929999 22.549998l-6.564-10.579999c8.326-4.705 14.340999-9.787999 18.039999-15.249999h-15.009999V929.660006z m128.293993 92.492994l-2.779-12.353999c3.706 0.591 6.729 0.884 9.080999 0.884 2.694 0 4.041-1.597 4.041-4.79V980.440003c-6.643 2.353-10.890999 3.821-12.737999 4.412999l-3.413-12.981999a164.15699 164.15699 0 0 0 16.150999-4.535v-25.200998h-13.621999v-12.731999h13.621999v-22.306999h12.865999v22.306999h10.727v12.731999H867.279949v20.032999a237.486986 237.486986 0 0 0 10.22-5.04v12.852999l-10.22 5.04v34.149998c0 8.653999-4.163 12.980999-12.487999 12.980999h-10.726999z m50.586997-54.315997c-1.518 20.922999-6.266 39.487998-14.262 55.699997l-10.342999-9.202999c8.161-15.955999 12.323999-36.579998 12.493999-61.867997v-41.833997h69.126996v33.392998h-22.709998v11.841999h25.482998v11.969999H928.969946v12.098h19.929998v43.351997h-12.109999v-5.168h-28.383998v5.168h-12.11v-43.351997h19.807999v-12.092H894.649948z m21.439998-23.811998h-20.812998v10.079999l-0.122 1.768H916.099946v-11.847999z m-7.689999 62.500996h28.381998v-14.992999h-28.382998v14.992999z m30.399998-83.923995h-43.522997v9.829999h43.516997v-9.829999z m44.399997-2.395h17.034999l-3.156999 64.139996h-10.727l-3.151-64.139996z m15.516999 73.593996c1.853 1.846 2.78 4.114 2.78 6.800999 0 2.773-0.927 5.083-2.78 6.93-2.011 1.768-4.37 2.645-7.063999 2.645a9.263999 9.263999 0 0 1-6.814-2.767c-1.932-1.682-2.9-3.95-2.9-6.808s0.974-5.12 2.9-6.800999c1.768-1.768 4.041-2.652 6.814-2.652 2.865 0 5.217 0.884 7.069999 2.652z" fill="" p-id="4870"></path></svg>