<svg class="icon" viewBox="0 0 1462 1024" xmlns="http://www.w3.org/2000/svg" width="68.531" height="48"><defs><style>*{user-select:text!important}</style></defs><path d="M700.351 633.754l5.425-5.424a5.266 5.266 0 0 1 7.454 0l82.169 82.163a5.254 5.254 0 0 1 1.097 1.603h287.39a18.388 18.388 0 0 0 18.4-18.376V270.624a18.388 18.388 0 0 0-18.4-18.381H357.554a18.388 18.388 0 0 0-18.393 18.381V693.72a18.388 18.388 0 0 0 18.393 18.376h394.854l-61.478-61.471a5.266 5.266 0 0 1 0-7.448l3.852-3.852-45.016-45.016a108.12 108.12 0 0 1-70.302 25.812c-59.778 0-108.243-48.234-108.243-107.73 0-59.504 48.465-107.731 108.243-107.731 59.777 0 108.242 48.227 108.242 107.73h55.45v5.254h-55.578a107.158 107.158 0 0 1-31.997 71.339l44.771 44.771zm93.012 86.216l-12.817 12.824a5.266 5.266 0 0 1-7.448 0l-12.817-12.824H357.553a26.268 26.268 0 0 1-26.28-26.25V407.28H85.753v-10.5h245.52V270.617a26.268 26.268 0 0 1 26.28-26.25h29.17v-28.92a26.268 26.268 0 0 1 26.28-26.255h726.334a26.268 26.268 0 0 1 26.28 26.256v423.096a26.268 26.268 0 0 1-26.28 26.256h-29.17v28.926c0 5.911-1.95 11.36-5.247 15.748h120.163v10.502h-431.72zM682.451 512.384c0-56.59-46.106-102.477-102.988-102.477-56.876 0-102.983 45.887-102.983 102.483 0 56.596 46.107 102.477 102.983 102.477 55.108 0 100.105-43.072 102.854-97.223h-21.185c-2.718 42.541-38.245 76.202-81.67 76.202-45.192 0-81.833-36.47-81.833-81.456 0-44.991 36.641-81.456 81.834-81.456 45.198 0 81.84 36.465 81.84 81.456h21.148zm-26.402 0c0-42.078-34.289-76.196-76.586-76.196s-76.58 34.118-76.58 76.196 34.282 76.202 76.58 76.202c40.53 0 73.69-31.314 76.403-70.948h-85.63v-5.254h85.813zm454.118 144.53h29.17a18.388 18.388 0 0 0 18.394-18.375v-423.09a18.388 18.388 0 0 0-18.394-18.376H413.003a18.388 18.388 0 0 0-18.4 18.376v28.925h689.284a26.268 26.268 0 0 1 26.28 26.256v386.29zm-756.362 194.44h26.403v-10.507h-26.409v-26.28h-10.562v26.28h-26.402v10.508h26.402v26.286h10.562v-26.286zM36.965 588.593h26.402V578.08H36.965v-26.274H26.402v26.28H0v10.507h26.402v26.275h10.563v-26.28zM327.397 89.337h26.408V78.83h-26.408V52.55H316.84v26.28h-26.409v10.508h26.409v26.28h10.556v-26.28zm1108.936 394.146h26.402v-10.508h-26.402v-26.28h-10.562v26.28h-26.403v10.508h26.403v26.28h10.562v-26.28zM1357.1 709.469v10.501h-89.726v-10.5h89.72zm-31.747-137.96a23.696 23.696 0 0 1-23.745-23.648 23.696 23.696 0 0 1 23.745-23.647 23.696 23.696 0 0 1 23.745 23.647 23.696 23.696 0 0 1-23.745 23.648zm0-7.874a15.816 15.816 0 0 0 15.858-15.774 15.816 15.816 0 0 0-15.858-15.767 15.816 15.816 0 0 0-15.86 15.767 15.816 15.816 0 0 0 15.86 15.774zM1193.34 860.552a23.696 23.696 0 0 1-23.751-23.648 23.696 23.696 0 0 1 23.745-23.648 23.696 23.696 0 0 1 23.745 23.648 23.696 23.696 0 0 1-23.745 23.648zm0-7.88a15.816 15.816 0 0 0 15.858-15.768 15.816 15.816 0 0 0-15.864-15.767 15.816 15.816 0 0 0-15.86 15.767 15.816 15.816 0 0 0 15.86 15.767zM744.477 44.662a22.38 22.38 0 0 1-22.428-22.33A22.38 22.38 0 0 1 744.483 0c12.385 0 22.429 9.995 22.429 22.331a22.38 22.38 0 0 1-22.429 22.331zm0-5.248a17.126 17.126 0 0 0 17.175-17.084 17.126 17.126 0 0 0-17.175-17.083 17.126 17.126 0 0 0-17.175 17.083 17.126 17.126 0 0 0 17.175 17.084zm-214.443 455.77l-5.826-1.743a57.888 57.888 0 0 1 28.493-34.515l2.834 5.376a51.811 51.811 0 0 0-25.5 30.882zm40.201-3.822v-5.247H631.5v5.247h-61.264zm0 52.555v-5.247H631.5v5.247h-61.264zm-51.5 407.165v10.58l-16.651 1.646v8.313h-12.11v-7.314c-7.15.506-15.176 1.012-24.093 1.518l-1.645-11.342c11.104-.506 19.686-.927 25.738-1.262v-7.058h-21.576l-2.773-10.586c2.438-2.767 5.047-6.51 7.82-11.215h-11.093V912.77h16.517c.841-2.011 1.767-4.449 2.78-7.307l13.115 2.145-2.011 5.162h28.505v11.592H487.45a104.787 104.787 0 0 1-6.558 11.093h9.082v-7.186h12.11v7.186h17.912v10.708h-17.918v6.302c1.523-.17 4.376-.42 8.581-.756l8.076-.627zm19.552-4.79c-1.512 9.995-4.962 18.899-10.343 26.712l-9.081-9.446c5.21-7.735 7.947-16.846 8.197-27.347v-21.174c16.395-1.59 28.846-4.327 37.342-8.19l8.576 9.702c-9.252 4.035-20.521 6.808-33.808 8.32v9.952h35.953v11.47H563.52v25.452h-12.74v-25.452h-12.494zm24.476 27.852v49.264h-13.372v-4.407H489.34v4.407h-13.372v-49.27h86.789zm-73.423 33.765h60.051v-6.424H489.34v6.424zm0-16.76h60.051v-6.175H489.34v6.174zm108.242-79.256h92.335v12.847h-44.15v7.314c-.256 7.643-.72 13.987-1.39 19.028h55.505v12.725h-37.72v39.068c0 4.114 1.89 6.168 5.68 6.168h13.5c2.267 0 3.992-.92 5.168-2.774 1.341-1.676 2.274-7.35 2.773-17.004l12.367 4.157c-1.097 13.603-3.072 21.673-5.93 24.196-2.609 2.432-6.558 3.65-11.86 3.65h-20.053c-9.842 0-14.76-5.253-14.76-15.754v-41.707h-6.815c-2.352 10.922-5.546 20.204-9.587 27.853-7.82 13.854-20.435 24.44-37.848 31.754l-7.436-11.726c17.236-7.893 28.926-17.81 35.07-29.737 2.437-5.375 4.497-11.427 6.18-18.144h-39.104v-12.725h41.37c.763-6.052 1.262-12.397 1.518-19.028v-7.314h-34.819v-12.847zm187.072 48.757a138.254 138.254 0 0 1-5.93 11.727l-8.198-10.209c6.979-13.86 11.647-32.387 14-55.572l12.872 2.267a300.86 300.86 0 0 1-2.401 15.627h31.54v12.726h-6.814c-.756 20.247-4.37 37.47-10.849 51.665 5.973 9.66 13.165 17.31 21.576 22.935l-7.576 11.214c-7.734-5.625-14.548-13.018-20.436-22.179a87.465 87.465 0 0 1-22.069 23.063l-7.064-11.337c9.082-5.972 16.444-13.993 22.076-24.074-4.035-8.063-7.607-17.345-10.721-27.853zm7.697-23.434l-1.39 5.04c2.689 12.013 6.18 22.813 10.472 32.388 3.614-10.837 5.674-23.312 6.18-37.422H792.35zm-44.156 29.365a77.517 77.517 0 0 1-1.89 5.29h25.233v11.092c-1.938 7.137-5.68 13.524-11.233 19.15 4.462 1.932 9.082 4.156 13.878 6.68l-7.192 10.586a201.443 201.443 0 0 0-17.156-8.947c-8.07 5.12-18.455 9.368-31.157 12.726l-6.308-11.336c8.917-2.024 16.651-4.54 23.215-7.564a988.33 988.33 0 0 0-15.773-6.302c3.03-5.04 5.68-9.83 7.948-14.365H715.4v-11.72h17.534c1.847-5.12 2.688-7.393 2.523-6.802l12.738 1.512zm11.227 17.004h-18.285c-1.097 2.103-2.821 5.174-5.18 9.203 2.694.841 6.643 2.267 11.86 4.284 5.217-4.113 9.081-8.611 11.605-13.481zm-31.784-74.466c2.773 4.535 5.253 9.49 7.435 14.872l-10.087 4.534a100.258 100.258 0 0 0-8.197-15.877l10.849-3.535zm45.283 4.407a84.717 84.717 0 0 1-9.587 15.499l-9.587-5.04c3.535-5.12 6.48-10.288 8.832-15.5l10.342 5.04zm-57.144 16.133h23.465v-22.813h12.11v22.813h21.441v11.464h-21.44v.256c6.557 2.602 13.243 5.625 20.05 9.069l-6.807 10.336a207.355 207.355 0 0 0-13.244-9.83v13.225h-12.11v-19.777c-4.29 8.569-10.934 16.09-19.93 22.55l-6.564-10.58c8.326-4.705 14.341-9.788 18.04-15.25h-15.01V929.66zm128.294 92.493l-2.779-12.354c3.706.591 6.729.884 9.081.884 2.694 0 4.041-1.597 4.041-4.79V980.44c-6.643 2.353-10.891 3.821-12.738 4.413l-3.413-12.982a164.157 164.157 0 0 0 16.151-4.535v-25.201h-13.622v-12.732h13.622v-22.307h12.866v22.307h10.727v12.732H867.28v20.033a237.487 237.487 0 0 0 10.22-5.04v12.853l-10.22 5.04v34.15c0 8.654-4.163 12.981-12.488 12.981h-10.727zm50.587-54.316c-1.518 20.923-6.266 39.488-14.262 55.7l-10.343-9.203c8.16-15.956 12.324-36.58 12.494-61.868v-41.834h69.127v33.393h-22.71v11.842h25.483v11.97H928.97v12.098h19.93v43.352h-12.11v-5.168h-28.384v5.168h-12.11v-43.352h19.808v-12.092H894.65zm21.44-23.812h-20.813v10.08l-.122 1.768H916.1v-11.848zm-7.69 62.501h28.382v-14.993h-28.383v14.993zm30.4-83.924h-43.523v9.83h43.517v-9.83zm44.4-2.395h17.035l-3.157 64.14h-10.727l-3.151-64.14zm15.517 73.594c1.853 1.846 2.78 4.114 2.78 6.801 0 2.773-.927 5.083-2.78 6.93-2.011 1.768-4.37 2.645-7.064 2.645a9.264 9.264 0 0 1-6.814-2.767c-1.932-1.682-2.9-3.95-2.9-6.808s.974-5.12 2.9-6.801c1.768-1.768 4.04-2.652 6.814-2.652 2.865 0 5.217.884 7.07 2.652z"/></svg>