<svg class="icon" viewBox="0 0 1024 1024" xmlns="http://www.w3.org/2000/svg" width="48" height="48"><defs><style>*{user-select:text!important}</style></defs><path d="M406.528 413.184c48.64-48.64 117.76-71.68 185.856-61.44l25.088-14.336c-80.896-19.968-165.888 3.584-224.256 61.952-28.16 28.16-49.152 63.488-60.416 101.888l24.576-14.336c11.264-27.648 28.16-52.736 49.152-73.728zm92.16-110.08l19.456-2.048-9.728-16.384 5.12-18.944-18.944 5.12-16.896-9.728-2.048 19.456-15.36 12.8 17.92 7.168 7.168 17.92 13.312-15.36zm-215.04 157.184l-18.432 3.584 11.264 15.872-3.072 19.968 17.92-6.144 16.896 8.704v-19.968l13.312-14.336-17.92-6.144-8.704-17.92-11.264 16.384zm84.48-121.856l-18.944-2.56 5.632 18.432-8.704 17.92 18.944-.512 13.312 13.312 6.144-18.944 16.896-9.728-15.36-11.264-3.072-19.456-14.848 12.8zm232.96-66.048l-19.456 3.584 11.776 14.848-3.072 18.944 18.944-6.144 17.92 8.192v-18.944l13.824-13.824-18.944-5.12-9.216-16.384-11.776 14.848zm189.44 14.848L198.656 628.736c-14.336 8.192-19.456 27.136-11.264 41.472l90.624 157.696c8.192 14.336 27.136 19.456 41.472 11.264L911.36 497.152c14.336-8.192 19.456-27.136 11.264-41.472l-91.136-157.696c-8.192-14.336-26.624-19.456-40.96-10.752zm30.208 29.184l82.432 142.848c6.144 10.752 2.56 24.576-8.192 30.72L323.072 820.736c-10.752 6.144-24.576 2.56-30.72-8.192L209.92 669.696c-6.144-10.752-2.56-24.576 8.192-30.72l571.904-330.752c10.752-6.144 24.576-2.56 30.72 8.192zM320 326.144c111.104-111.104 280.576-129.536 410.624-54.272l18.944-10.752c-138.24-85.504-322.048-68.096-442.368 52.224-72.704 72.704-108.032 168.96-104.96 264.704l18.432-10.752C220.16 476.16 256 389.632 320 326.144z"/><path d="M447.488 622.08c3.072-1.536 5.632-3.584 8.704-5.12s6.144-3.584 8.704-5.632c2.56-1.536 5.632-3.584 7.68-5.12 2.56-1.536 4.608-3.072 6.144-4.096l7.68 13.312c-2.048 1.024-4.096 2.048-6.656 3.584-2.56 1.536-5.12 2.56-8.192 4.096l-9.216 4.608c-3.072 1.536-6.144 3.584-9.216 5.12l18.944 33.28c2.048 3.584 4.608 7.168 7.168 11.776 2.56 4.096 5.632 8.192 8.704 12.288l-15.36 8.704c-2.048-4.608-4.096-9.216-6.144-13.312-2.048-4.608-4.608-8.704-6.656-11.776l-18.944-33.28-29.184 16.896c3.072 6.144 5.12 12.288 6.656 19.456 1.536 6.656 2.048 13.824 2.048 20.48 0 6.656-1.024 13.824-2.56 20.48-1.536 6.656-4.096 12.8-6.656 18.432-2.56-1.024-5.632-1.536-9.728-2.048-3.584 0-7.168 0-10.24.512 3.584-5.12 6.656-10.24 9.216-15.872s4.096-11.776 5.12-17.92a55.68 55.68 0 0 0 0-18.432c-1.024-6.144-2.56-12.288-5.632-17.92-7.168 4.096-14.336 8.704-20.48 12.288-6.144 4.096-11.264 7.68-15.36 10.24l-7.68-13.312c5.12-2.56 10.24-5.12 16.384-8.704 6.144-3.072 13.312-7.168 20.992-11.776L371.2 613.888c-7.168 4.096-12.8 7.68-16.896 10.24-4.608 2.56-7.68 5.12-10.752 7.168l-7.68-13.312c4.096-1.536 10.24-5.12 19.456-9.728 9.216-5.12 20.992-11.264 34.816-19.456 8.704-5.12 15.872-9.216 22.016-12.8s11.264-6.656 15.36-9.216c4.096-2.56 7.68-4.608 9.728-6.144 2.56-1.536 4.096-3.072 5.632-4.096l7.68 13.312c-1.024.512-2.56 1.024-4.608 2.048l-6.144 3.072c-2.048 1.024-4.608 2.56-7.168 3.584-2.56 1.536-5.12 2.56-7.68 4.096l22.528 39.424zm-12.288 7.68l-22.528-39.424-29.184 16.896 22.528 39.424L435.2 629.76zm106.496-67.072c2.048-1.024 3.584-2.048 5.12-3.072s3.072-2.048 4.096-3.072l27.136 53.248c1.536 3.072 2.56 6.144 3.072 8.192.512 2.56 0 5.12-1.024 7.168-1.024 2.56-2.56 5.12-5.12 7.68s-6.144 5.632-10.24 9.216c-1.024-2.048-3.072-4.096-5.632-6.656s-5.12-4.096-8.192-5.632c6.656-2.56 10.752-5.12 12.8-8.192s2.048-6.144.512-9.728l-19.456-38.4-15.872 9.216c3.072 7.168 6.144 13.824 8.192 19.968s4.096 11.776 5.12 17.408c1.024 5.632 2.048 10.752 2.56 16.384.512 5.12.512 10.752 0 16.384-2.56-.512-5.12-1.024-8.192-.512-2.56 0-5.12.512-7.68 1.536 1.024-7.168 1.536-14.336 1.024-20.992-.512-6.656-1.536-13.312-3.584-20.992-2.048-7.168-5.12-15.36-9.216-23.552-4.096-8.704-9.216-18.432-14.848-30.208-7.168 4.096-13.312 8.192-18.432 11.776l-7.168-12.288c4.096-2.048 8.704-4.096 13.824-6.656 5.12-2.56 10.752-6.144 17.92-10.24s12.8-7.68 17.92-10.752 9.216-5.632 12.288-8.192l7.168 12.288c-2.048 1.024-4.096 1.536-6.144 2.56s-4.608 2.048-7.168 3.584c-2.56 1.536-5.632 3.072-8.704 4.608-3.072 1.536-6.656 3.584-10.752 6.144 2.048 3.584 3.584 7.168 5.12 10.752 1.536 3.584 3.584 6.656 5.12 9.728l18.432-8.704zm-36.352-22.528c-2.048-2.56-4.608-5.12-7.68-7.68s-5.632-5.12-8.704-6.656l9.728-12.8c2.048 2.048 4.608 4.096 7.68 6.656s6.144 4.608 9.216 7.168l-10.24 13.312zm97.792 34.816c.512-7.168-1.024-15.872-4.608-26.112-3.584-10.24-9.216-22.528-16.896-36.352L560.128 524.8c.512 5.12 1.024 10.24 1.024 15.872s-.512 10.24-1.024 14.336c-2.048 0-4.608-.512-7.168-.512h-7.168c1.024-6.144 1.536-12.288 1.536-17.92s-.512-11.264-1.536-16.384c-1.024-5.12-2.048-10.752-3.584-15.36s-3.584-10.24-5.632-15.36c1.024 0 2.56 0 4.608-.512 1.536-.512 3.584-.512 5.12-1.024s3.584-1.024 5.12-1.536 3.072-1.024 3.584-1.024c.512-.512 1.024 0 1.536.512s0 1.536-.512 2.56c-.512.512-.512 2.56 0 6.144 0 3.584 1.024 9.216 2.048 17.408l23.552-13.824c5.632-3.072 9.728-5.632 12.288-7.168 2.56-1.536 4.608-3.072 6.144-4.096l6.656 11.776c-2.048 1.024-4.096 2.048-5.632 3.072-2.048 1.024-4.608 2.56-8.192 4.608 4.608 9.216 8.192 16.896 11.264 23.552s5.12 12.8 7.168 18.432c1.536 5.632 2.56 10.752 3.584 15.36.512 4.608.512 9.728.512 14.848 7.168 1.024 14.336 1.024 20.48 0s12.288-3.072 17.92-6.144c-1.024 3.584-1.536 6.656-1.536 10.24 0 3.072.512 6.656 1.024 9.216-7.168 1.024-14.336 1.536-20.48 2.048-6.144 0-12.8-.512-19.456-2.048-1.024 6.144-2.56 11.776-4.608 16.896s-5.12 10.752-8.704 16.384c-2.56-1.536-5.12-2.56-8.192-3.072s-5.632-1.024-9.216-.512c4.608-5.632 8.704-10.752 11.264-15.872 2.56-5.12 4.608-10.752 6.144-17.408-5.632-2.56-11.264-6.656-17.92-12.8-6.656-5.632-13.312-13.312-20.48-22.528l8.704-8.704c7.168 8.704 13.312 15.872 18.432 20.48 6.144 4.608 10.752 8.192 14.336 10.24zm115.2-80.384l11.776 20.48c1.024 1.536 2.048 3.584 3.072 5.632 1.024 2.048 2.56 4.096 4.096 6.656 1.536 2.048 3.072 4.608 4.608 6.656 1.536 2.048 3.072 4.096 4.096 6.144l-15.36 8.704c-1.024-2.048-1.536-4.096-3.072-6.144-1.024-2.56-2.56-4.608-3.584-7.168-1.024-2.56-2.56-4.608-3.584-7.168-1.024-2.048-2.048-4.096-3.072-5.632l-11.776-20.48-32.768 18.944 5.632 10.24-12.8 7.68c-1.536-3.072-3.072-6.656-5.12-10.752s-4.096-7.68-5.632-10.752l-17.408-30.72-4.608-7.68c-1.536-2.56-3.072-4.608-4.608-6.144 3.584-1.536 9.728-4.608 17.408-8.704 7.68-4.096 17.408-9.728 29.696-16.384l-4.608-7.68c-2.048-3.072-3.584-6.144-5.12-8.192s-2.56-4.096-3.584-5.632c-1.024-1.536-2.048-3.072-2.56-3.584-.512-1.024-1.536-1.536-2.048-2.56 2.56-1.024 5.632-2.56 7.68-3.584 2.56-1.024 5.12-2.56 7.68-4.096 1.024-.512 2.048-1.024 2.048-.512.512 0 0 1.024-.512 3.072-.512 1.536.512 4.608 2.56 8.704l9.728 16.384c12.288-7.168 22.528-13.312 30.208-17.92 7.68-4.608 12.8-8.192 16.384-10.752.512 1.024 1.024 2.048 2.048 3.584.512 1.536 1.536 3.072 2.56 4.608 1.024 1.536 1.536 3.072 2.56 5.12 1.024 1.536 1.536 3.072 2.56 4.096l15.872 27.136c1.536 3.072 3.584 6.144 6.144 9.728s4.608 7.168 6.144 9.728l-13.312 7.68-5.12-8.704-34.304 19.968zm-18.432-3.584l-19.456-33.28-32.768 18.944 19.456 33.28 32.768-18.944zm46.08-26.624l-19.456-33.28-33.792 19.456 19.456 33.28 33.792-19.456z"/></svg>