<svg class="icon" viewBox="0 0 1024 1024" xmlns="http://www.w3.org/2000/svg" width="48" height="48"><defs><style>*{user-select:text!important}</style></defs><path d="M512 1.617C230.123 1.617 1.617 230.125 1.617 512.002c0 281.875 228.506 510.38 510.383 510.38s510.383-228.506 510.383-510.38C1022.383 230.125 793.877 1.617 512 1.617zm0 280.713c84.563 0 153.115 68.552 153.115 153.115S596.563 588.561 512 588.561s-153.115-68.553-153.115-153.116S427.437 282.33 512 282.33zM172.336 821.238c71.405-118.756 191-181.642 339.663-181.642 152.784 0 258.138 66.105 339.662 181.646-268.779 263.574-578.825 126.97-679.325-.004z"/></svg>