<svg class="icon" viewBox="0 0 1024 1024" xmlns="http://www.w3.org/2000/svg" width="48" height="48"><defs><style>*{user-select:text!important}</style></defs><path d="M375.36 1024a66.88 66.88 0 0 1-66.752-66.752v-423.04a200.576 200.576 0 0 1 200.32-200.32 200.576 200.576 0 0 1 200.32 200.32v423.04c0 36.8-29.952 66.752-66.752 66.752H375.36zm400.704 0V445.248h22.272a200.576 200.576 0 0 1 200.32 200.32v311.68c0 36.8-29.952 66.752-66.752 66.752h-155.84zm-534.272 0H85.952A66.88 66.88 0 0 1 19.2 957.248v-311.68a200.576 200.576 0 0 1 200.32-200.32h22.272V1024zm267.136-712.32a156.032 156.032 0 0 1-155.84-155.84A156.032 156.032 0 0 1 508.928 0a156.032 156.032 0 0 1 155.84 155.84 156.032 156.032 0 0 1-155.84 155.84zm289.408 88.96a133.76 133.76 0 0 1-133.568-133.504 133.76 133.76 0 0 1 133.568-133.568 133.76 133.76 0 0 1 133.568 133.568 133.76 133.76 0 0 1-133.568 133.568zm-578.816 0A133.76 133.76 0 0 1 85.952 267.136 133.76 133.76 0 0 1 219.52 133.568a133.76 133.76 0 0 1 133.568 133.568A133.76 133.76 0 0 1 219.52 400.64z"/></svg>