<svg class="icon" viewBox="0 0 1210 1024" xmlns="http://www.w3.org/2000/svg" width="56.719" height="48"><defs><style>*{user-select:text!important}</style></defs><path d="M370.27 522.054c-83.178-42.822-138.753-137.263-138.753-248.46C231.517 122.508 338.48 0 470.435 0s238.964 122.508 238.964 273.594c0 110.871-55.389 205.173-138.24 248.134 204.8 51.06 359.936 254.604 370.083 501.574L0 1024c13.033-243.759 167.284-449.955 370.27-501.946z"/><path d="M674.676 32.396C730.996 94.906 766 182.458 766 279.366c0 89.553-29.836 171.054-78.802 232.262 152.39 75.077 267.636 230.26 305.199 419.281l217.786-.186c-9.216-224.628-150.342-409.74-336.617-456.146 75.31-39.098 125.72-124.881 125.72-225.745C999.33 111.43 902.05 0 781.963 0c-39.983 0-77.452 12.381-109.661 33.978l2.373-1.582z"/></svg>