<svg class="icon" viewBox="0 0 1024 1024" xmlns="http://www.w3.org/2000/svg" width="48" height="48"><path d="M515.012 1024c-162.636 0-454.777-252.988-460.8-505.976V231.906c3.012-45.177 36.14-81.318 81.317-87.341 57.224-6.024 111.436-18.07 162.636-39.153 54.211-15.06 105.411-45.177 147.576-81.318 36.141-27.106 84.33-30.118 120.47-6.023C611.389 54.21 662.589 81.318 716.8 102.4c54.212 18.07 111.435 30.118 168.659 39.153 45.176 9.035 78.306 45.176 78.306 90.353 3.011 96.376 3.011 195.765-3.012 292.141C924.612 846.306 674.635 1024 515.012 1024zM786.07 415.624c18.07-15.06 18.07-39.153 3.011-57.224-15.058-18.07-42.164-18.07-57.223-3.012L463.812 608.376 331.294 466.824c-15.059-18.071-42.165-18.071-57.223-3.012C256 478.87 256 505.976 271.059 521.035l162.635 171.67 9.035 6.024c15.06 9.036 36.142 9.036 48.189-6.023L786.07 415.624z"/></svg>