<?xml version="1.0" standalone="no"?><svg t="1551969944602" class="icon" style="" viewBox="0 0 1024 1024" version="1.1" xmlns="http://www.w3.org/2000/svg" p-id="2916" xmlns:xlink="http://www.w3.org/1999/xlink" width="48" height="48"><path d="M515.011765 1024C352.376471 1024 60.235294 771.011765 54.211765 518.023529V231.905882C57.223529 186.729412 90.352941 150.588235 135.529412 144.564706c57.223529-6.023529 111.435294-18.070588 162.635294-39.152941C352.376471 90.352941 403.576471 60.235294 445.741176 24.094118c36.141176-27.105882 84.329412-30.117647 120.470589-6.02353 45.176471 36.141176 96.376471 63.247059 150.588235 84.329412 54.211765 18.070588 111.435294 30.117647 168.658824 39.152941 45.176471 9.035294 78.305882 45.176471 78.305882 90.352941 3.011765 96.376471 3.011765 195.764706-3.011765 292.141177C924.611765 846.305882 674.635294 1024 515.011765 1024z m271.058823-608.376471c18.070588-15.058824 18.070588-39.152941 3.011765-57.223529-15.058824-18.070588-42.164706-18.070588-57.223529-3.011765l-268.047059 252.988236-132.517647-141.552942c-15.058824-18.070588-42.164706-18.070588-57.22353-3.011764-18.070588 15.058824-18.070588 42.164706-3.011764 57.223529l162.635294 171.670588 9.035294 6.02353c15.058824 9.035294 36.141176 9.035294 48.188235-6.02353l295.152941-277.082353z" p-id="2917"></path></svg>